<svg id="Calque_1" data-name="Calque 1" xmlns="http://www.w3.org/2000/svg" viewBox="0 0 1000 600"><defs><style>.cls-1{fill:#39b54a;}.cls-2{font-size:120px;font-family:Contempo;}.cls-2,.cls-4{fill:#fff;}.cls-3,.cls-4{stroke:#39b54a;stroke-miterlimit:10;}.cls-3{stroke-width:3px;}.cls-4{stroke-width:6px;}</style></defs><title>forme 2</title><polygon class="cls-1" points="449 226.67 473.12 211.43 482.94 220.06 495.9 208.84 499.47 213.44 515.99 197.05 549.72 215.17 553.96 210.28 608 233 554.18 202.8 549.49 207.41 516.22 189 499.25 203.09 496.57 199.35 482.94 211.72 473.34 202.52 449 226.67"/><polygon class="cls-1" points="325.43 314.36 349.29 423.06 613.27 294.65 700.98 355.53 675.42 418.86 325.43 314.36"/><path id="path2392" class="cls-1" d="M438.75,367.6c-1.09-.25-2.53-.6-3.21-.78s-1.56-.41-2-.5a10.85,10.85,0,0,1-1.32-.42,4.15,4.15,0,0,0-.94-.28,8.35,8.35,0,0,1-1.23-.31,9.81,9.81,0,0,0-1.22-.3c-.21,0-.85-.15-1.43-.29a7.48,7.48,0,0,0-3.39.07,12.5,12.5,0,0,1-1.32.24,4.74,4.74,0,0,0-1.17.31,5.61,5.61,0,0,1-1.14.37c-.44.1-1.31.32-1.93.49l-2.27.59c-.62.16-1.46.39-1.85.51a1.75,1.75,0,0,1-.82.14,2.91,2.91,0,0,0-1.06.18,10.74,10.74,0,0,1-4.29.09,14.72,14.72,0,0,0-1.6-.31,22.18,22.18,0,0,1-2.64-.63c-.94-.28-1.91-.54-2.17-.59a5.25,5.25,0,0,1-.94-.26,21.58,21.58,0,0,0-3.39-.91,4.61,4.61,0,0,1-1.17-.31,11.25,11.25,0,0,0-4.13,0c-.36.11-.87.25-1.13.3a5.17,5.17,0,0,0-1,.37,20.08,20.08,0,0,0-3.35,1.85.63.63,0,0,1-.43.25c-.32,0-.53-1.29-.29-1.77.44-.87,2.49-2.13,4.91-3a12.94,12.94,0,0,1,7,0,7.67,7.67,0,0,0,1.32.33,4.35,4.35,0,0,1,1,.23,62.47,62.47,0,0,0,7.81,2,17.75,17.75,0,0,0,5.72-.25,4.78,4.78,0,0,1,1.38-.32,2.28,2.28,0,0,0,.85-.18,3.76,3.76,0,0,1,1-.3,22.66,22.66,0,0,0,3.14-.93,7.12,7.12,0,0,1,1.13-.29,12.35,12.35,0,0,0,1.51-.38,6.27,6.27,0,0,1,1.13-.28l1.8,0a10.25,10.25,0,0,1,3.7.41,1.73,1.73,0,0,0,.71.18,4.84,4.84,0,0,1,1.19.29,12.06,12.06,0,0,0,1.28.38,12.68,12.68,0,0,1,1.23.37,3.62,3.62,0,0,0,1,.26,1.68,1.68,0,0,1,.76.22,5.67,5.67,0,0,0,1.3.37,7.7,7.7,0,0,1,1.31.34,17.47,17.47,0,0,0,3.25.28,17.28,17.28,0,0,0,6.84-1,6.94,6.94,0,0,1,1.29-.28,1.92,1.92,0,0,0,.76-.22,3.42,3.42,0,0,1,1-.31,9.89,9.89,0,0,0,1.25-.31,6.57,6.57,0,0,1,.75-.22,4.4,4.4,0,0,0,.66-.17,8.75,8.75,0,0,1,3.21-.48,7.83,7.83,0,0,1,3.21.33,17.62,17.62,0,0,1,4.76,2.35c.73.57.8.7.8,1.5,0,1.07-.25,1.28-.91.77a13.1,13.1,0,0,0-1.45-.87,3.85,3.85,0,0,1-1-.63.41.41,0,0,0-.34-.15,2.34,2.34,0,0,1-.81-.29A5.15,5.15,0,0,0,460,365a13.43,13.43,0,0,1-1.49-.28,3,3,0,0,0-.85-.11l-1,.18c-.41.07-1.11.17-1.54.22a5.68,5.68,0,0,0-1.3.3,8.16,8.16,0,0,1-1.19.32,3.77,3.77,0,0,0-1,.27,4.26,4.26,0,0,1-1,.28,11.5,11.5,0,0,0-1.57.42,5,5,0,0,1-1.2.29,2,2,0,0,0-.79.23,4,4,0,0,1-1.34.31,4.76,4.76,0,0,0-1.29.28C443.63,368.14,440.81,368.08,438.75,367.6Zm-29.91-4.38c-.45-.12-2.31-.5-2.83-.58-.31-.05-1.2-.28-2-.51-1.64-.49-3.28-.92-4.62-1.22a6.48,6.48,0,0,1-1.23-.37,4,4,0,0,0-1.06-.29c-.42-.07-1-.2-1.34-.29a10.78,10.78,0,0,0-5.71.72,16.6,16.6,0,0,0-3.38,1.88c-.54.44-.7.32-.87-.68-.12-.67-.07-.81.5-1.37A17.53,17.53,0,0,1,391,358a9.34,9.34,0,0,1,3.59-.33,12.93,12.93,0,0,1,2.93.27,4.16,4.16,0,0,0,1.22.36,4.69,4.69,0,0,1,1.13.29,3.13,3.13,0,0,0,.87.26,3.53,3.53,0,0,1,.95.31,4.72,4.72,0,0,0,1.2.33,4.59,4.59,0,0,1,1.13.3,4.73,4.73,0,0,0,1.13.3,4.9,4.9,0,0,1,1.18.32c.84.48,5.55.42,7.69-.1l1.32-.3c.47-.11,1.49-.38,2.27-.61s1.65-.47,1.95-.53a11.24,11.24,0,0,0,1.27-.38,2.1,2.1,0,0,1,.74-.2c0,.05.28,0,.61-.12a12,12,0,0,1,1.18-.3c.75-.13,1.05-.47.92-1-.09-.37-.25-.45-.89-.47-.43,0-1.29,0-1.91-.08s-1.82-.09-2.65-.11a5,5,0,0,1-2.61-.61c-1.14-.58-2-1.44-2-2s.67-1,1.64-.88c.5.07,1.32.13,1.82.14a2.36,2.36,0,0,1,1.13.24,9.57,9.57,0,0,0,3,1.68c1.79.48,2.18.49,2.4.06a8.12,8.12,0,0,0,0-3.75,21.06,21.06,0,0,0-3.64-.24c-6.67-.1-7.13-.16-8.91-1.1a4.94,4.94,0,0,1-2-2.38c0-.75,0-1,.44-1.36s.57-.37,3,.05l1.6.28a7.43,7.43,0,0,1,1.6.62,9.89,9.89,0,0,0,1.34.6,2.75,2.75,0,0,1,.67.25,10.32,10.32,0,0,0,4.79,1.32l1.23,0,.05-1.19c.08-1.61.24-1.77,1.62-1.62a2.45,2.45,0,0,1,1.28.37,3,3,0,0,1,.16,1.14c0,1.42,0,1.43,2.47,1.34a24.32,24.32,0,0,0,2.81-.22,10.51,10.51,0,0,0,3.39-1.83,5.11,5.11,0,0,1,1.27-.76c.27-.05,2.63-.33,3.08-.37a4.59,4.59,0,0,0,.62-.16c.43-.13.6-.07,1,.37.59.68.58,1-.05,1.94a4.71,4.71,0,0,1-2.31,2c-1.12.57-.9.55-8.85.74-2.36.06-3.12.14-3.25.35a6.53,6.53,0,0,0-.17,1.8c0,1.13.08,1.61.3,1.84s.25.38,1.8,0a8.53,8.53,0,0,0,2.55-1.11,4.25,4.25,0,0,1,2.61-.92c.73-.05,1.56-.12,1.85-.16a.91.91,0,0,1,1.08.88c0,.56-.85,1.51-1.78,2s-1,.54-4.41.7c-3.78.18-4,.23-4,.88,0,.37,1.24.88,2.74,1.13a4.15,4.15,0,0,1,1,.29,3.55,3.55,0,0,0,.85.27c.31.07,1.21.31,2,.53s1.84.51,2.36.62a7.07,7.07,0,0,1,1.22.36c1.09.61,6.9.61,8.43,0a7.61,7.61,0,0,1,1.22-.29,4.51,4.51,0,0,0,1.11-.3,4.84,4.84,0,0,1,1.14-.3,4.34,4.34,0,0,0,1-.23,24.27,24.27,0,0,1,3.36-1,6.34,6.34,0,0,0,1.19-.29,10.18,10.18,0,0,1,4.55-.1,7.72,7.72,0,0,0,1.23.36,7.38,7.38,0,0,1,1.41.55c.52.25,1.07.5,1.23.56a6,6,0,0,1,2.4,2c.38,1.54-.08,2-1.24,1.13a20.23,20.23,0,0,0-3.52-1.8,12.41,12.41,0,0,0-7.22,0,5,5,0,0,1-1.33.28,1.17,1.17,0,0,0-.7.19,3.53,3.53,0,0,1-1.13.39c-.52.11-1.45.34-2.07.51-4,1.05-4.59,1.16-6.7,1.17s-3.16-.09-3.53-.33a4.47,4.47,0,0,0-1-.23,5,5,0,0,1-1.16-.32,1.73,1.73,0,0,0-.71-.18,5,5,0,0,1-1.19-.29,9.8,9.8,0,0,0-1.33-.38c-.28-.06-.79-.19-1.13-.3a16,16,0,0,0-6.08-1.1,11.77,11.77,0,0,0-3.66.46,5,5,0,0,1-1.16.32,4.58,4.58,0,0,0-1.12.29,4.43,4.43,0,0,1-1,.29,11.41,11.41,0,0,0-1.57.41,4.67,4.67,0,0,1-1.2.3,2,2,0,0,0-.78.22,3,3,0,0,1-1,.29,5.44,5.44,0,0,0-1.81.39A19.79,19.79,0,0,1,408.84,363.22Zm-27.4-9-4.95-.06-.12-.48c-.12-.52.42-2.49.68-2.49.09,0,.21-.17.27-.37a18.68,18.68,0,0,1,4.06-4.21,8.23,8.23,0,0,0,.81-.65,1.39,1.39,0,0,1,.57-.34,4.18,4.18,0,0,0,1-.6,3.59,3.59,0,0,1,1.09-.6.73.73,0,0,0,.48-.3.79.79,0,0,1,.46-.3,5.24,5.24,0,0,0,1.16-.46c1.32-.67,2.09-1,3.33-1.57a3.38,3.38,0,0,0,1.64-1.3,2.68,2.68,0,0,1,2.49-1.4c.76,0,.93.11,2,1.23a6,6,0,0,0,2.9,2,48.55,48.55,0,0,1,7.2,3.95,24.53,24.53,0,0,1,4.53,4.46c.95,1.26,1.39,3,.86,3.37C411.69,354.26,392.05,354.33,381.44,354.22Zm47-7.92a11.4,11.4,0,0,0-1.8-.35,4,4,0,0,1-1.23-.28,5.32,5.32,0,0,0-1.38-.33,5.67,5.67,0,0,1-1.32-.3,4.18,4.18,0,0,0-1-.3,34.81,34.81,0,0,1-5.13-1.63,36.64,36.64,0,0,1-3.44-1.36,6.41,6.41,0,0,0-1.17-.51,15.65,15.65,0,0,1-3-1.63c0-.09-.23-.16-.42-.16s-.37-.09-.37-.19-.17-.24-.38-.31c-.79-.26-3.76-2.82-6-5.14a23.56,23.56,0,0,1-2.31-2.63,3.53,3.53,0,0,0-.63-1,50.33,50.33,0,0,1-5.46-9.83c-.21-.49-.46-1.05-.55-1.24a1.74,1.74,0,0,1-.16-.6,3.62,3.62,0,0,0-.38-1,3.58,3.58,0,0,1-.37-1.14,2.34,2.34,0,0,0-.16-.75,20.29,20.29,0,0,1-1-3.13c-.09-.44-.34-1.65-.57-2.69a26.88,26.88,0,0,1-.49-3.18,12.68,12.68,0,0,0-.28-1.94,76.79,76.79,0,0,1,0-11.15,3.91,3.91,0,0,0,.21-1.38,8.83,8.83,0,0,1,.28-2c.15-.54.33-1.34.4-1.77a4.82,4.82,0,0,1,.28-1.13,1.92,1.92,0,0,0,.17-.76,3.72,3.72,0,0,1,.38-1.2,3.73,3.73,0,0,0,.38-1.28c0-.28.06-.51.14-.51s.24-.29.36-.64a13.18,13.18,0,0,1,.82-2.14c.05-.06.48-.89.94-1.84a22.65,22.65,0,0,1,1.18-2.19c.18-.25.78-1.16,1.32-2s1.08-1.69,1.19-1.81.66-.79,1.23-1.49a61.37,61.37,0,0,1,5.46-5.75,11,11,0,0,0,.95-.83,37.74,37.74,0,0,1,3.58-2.75.26.26,0,0,0,.22-.15,9.62,9.62,0,0,1,1.94-1.45,7,7,0,0,0,1-.64,19.48,19.48,0,0,1,2.55-1.59,6,6,0,0,0,.88-.55,32.47,32.47,0,0,1,4-2.1,1.86,1.86,0,0,0,.71-.41c.19-.19.35-.28.35-.2s.33-.05.75-.27a3.42,3.42,0,0,1,1-.4c.16,0,.29-.08.29-.18s.2-.22.43-.28a12.42,12.42,0,0,0,1.46-.53c.57-.24,1.34-.53,1.7-.64a3.3,3.3,0,0,0,.89-.4,2.16,2.16,0,0,1,.84-.3,4,4,0,0,0,1.14-.38,2.37,2.37,0,0,1,.86-.28.77.77,0,0,0,.49-.14.88.88,0,0,1,.36-.19l.51-.12c.31-.07,2.16-.64,3.16-1a6.45,6.45,0,0,1,1.25-.26,2.58,2.58,0,0,0,.86-.21,2.67,2.67,0,0,1,.63-.22c.56-.1,2-.42,2.59-.57.26-.06.86-.16,1.33-.23s1.16-.2,1.56-.3.8-.13,1.05.06a5.61,5.61,0,0,1,1.35,1.66,7.71,7.71,0,0,0,.45,1.17,23.88,23.88,0,0,1,1.35,3.36,1.46,1.46,0,0,0,.29.65c.1.06.17.41.17.79s.08.69.17.69.21.27.28.61a7.29,7.29,0,0,0,.37,1.24,8.93,8.93,0,0,1,.69,2.44,6.49,6.49,0,0,0,.38,1.43,6.21,6.21,0,0,1,.38,1.5,1.17,1.17,0,0,0,.16.64c.28.32.59,3.65.58,6.18,0,2.69-.57,5.81-1.2,6.65a6.12,6.12,0,0,0-.48.85,22.48,22.48,0,0,1-4,4.31,10.88,10.88,0,0,0-3.7,6.28,12.34,12.34,0,0,0,.07,3.65c.09.27.65.25,1.78,0a34.21,34.21,0,0,1,3.59-.21c2.84-.07,3.22,0,4.36.37a12,12,0,0,1,4.49,3.07,26.35,26.35,0,0,1,3.41,4.61c0,.11.07.2.14.2s.58.69,1.8,3.05a6.92,6.92,0,0,0,.52.92,25.48,25.48,0,0,1,1.13,2.49,23.61,23.61,0,0,1,.77,3.18c.1.55.27,1.41.38,1.92a40.84,40.84,0,0,1,0,7.92,2.4,2.4,0,0,0-.2.93c0,1.27-1.4,5.33-2.49,7.26a4.94,4.94,0,0,0-.53,1.14.21.21,0,0,1-.19.23.2.2,0,0,0-.18.22,3.41,3.41,0,0,1-.57,1,4.43,4.43,0,0,0-.57.87c0,.41-4.23,4.88-5.85,6.18a37.62,37.62,0,0,1-6.88,4.48,26.29,26.29,0,0,1-4.34,2,2.86,2.86,0,0,0-.7.29,10.92,10.92,0,0,1-2.9,1,3.9,3.9,0,0,0-1,.3,5.28,5.28,0,0,1-1.23.29,16.68,16.68,0,0,0-1.68.33A16.23,16.23,0,0,1,428.47,346.3Zm-1.36-2.23a1.21,1.21,0,0,0-.25-.44c-.16-.13-1.68-2.46-2.17-3.31a10,10,0,0,0-.7-1.07,1.36,1.36,0,0,1-.33-.68.41.41,0,0,0-.15-.35,5.72,5.72,0,0,1-.6-1.16,8.81,8.81,0,0,0-.71-1.41A1.27,1.27,0,0,1,422,335a4.87,4.87,0,0,0-.26-1.08,13.23,13.23,0,0,1-.72-4.69,9.38,9.38,0,0,1,.73-3.92,11,11,0,0,1,2.8-3.56,2.53,2.53,0,0,0,.66-.43.23.23,0,0,1,.19-.12,20.87,20.87,0,0,0,3.5-1.56,9.6,9.6,0,0,0,3.3-2.51c2-2.12,2.73-3.53,2.9-5.84a5.2,5.2,0,0,0-.07-1.89c-.17-.26-.2-.25-.2.07,0,.87-1.27,2.82-3,4.65s-1.92,2-4.81,3.46a28.11,28.11,0,0,1-3.32,1.57c-1,0-4.71,3-4.71,3.81a3.06,3.06,0,0,1-.4,1c-.37.66-.39.92-.3,3.45a18.65,18.65,0,0,0,1.78,8c.21.38.69,1.34,1.07,2.12a9.51,9.51,0,0,0,1,1.66.82.82,0,0,1,.28.51c0,.15.08.27.18.27a.2.2,0,0,1,.19.22,3.81,3.81,0,0,0,.63,1,17.54,17.54,0,0,1,1.06,1.59,3.13,3.13,0,0,0,2.32,1.52C427.13,344.42,427.21,344.35,427.11,344.07Zm9.79.14c.84-.24,1-.46.65-.82a20.07,20.07,0,0,1-3.62-4.37,24.17,24.17,0,0,1-1.22-2.09,4.85,4.85,0,0,0-.37-.95,6.75,6.75,0,0,1-.46-1.51c-.05-.38-.18-1.32-.3-2.08-.33-2.17-.18-5.89.28-7,.14-.33.89-2,1.67-3.68,1.42-3.11,1.8-4.25,1.49-4.45-.09-.06-.37.27-.61.73a17.26,17.26,0,0,1-4,4.71,11,11,0,0,0-3.25,3.74,12,12,0,0,0,.1,5.72,5.25,5.25,0,0,0,.56,1.4.66.66,0,0,1,.18.5,1.9,1.9,0,0,0,.17.74c.1.19.37.79.6,1.34a7.37,7.37,0,0,0,1.35,2.25.35.35,0,0,1,.14.31,4,4,0,0,0,.75,1.12,4.92,4.92,0,0,1,.75,1,11.72,11.72,0,0,0,2.64,2.94A2.37,2.37,0,0,0,436.9,344.21Zm-20.19-2.74c.13,0,0-.29-.67-1.79a3.25,3.25,0,0,1-.31-.95,1.86,1.86,0,0,0-.17-.63,30,30,0,0,1-1.12-3.73c-.1-.43-.33-1.37-.51-2.08a42.64,42.64,0,0,1-.83-5.38,11.41,11.41,0,0,1,.46-5.29,11.29,11.29,0,0,1,4.44-4.69c.67-.32,1.36-.66,1.52-.75a16,16,0,0,1,3.76-.89,10.9,10.9,0,0,0,2.36-.62c.72-.28,1.47-.54,1.65-.59a1.47,1.47,0,0,0,.63-.39,1.05,1.05,0,0,1,.66-.3c.2,0,.36-.07.36-.15a10.39,10.39,0,0,0-2.5-.2L422,313a11.81,11.81,0,0,0-6.78,1.46,14,14,0,0,0-3.55,3.58c-1.75,2.68-2.24,9.43-1.05,14.59.15.66.31,1.47.37,1.79a6.4,6.4,0,0,0,.24,1c.09.22.35,1.11.6,2,.62,2.25,1,2.75,2.52,3.54A3.35,3.35,0,0,0,416.71,341.47ZM445.59,340c.39-.11.71-.28.71-.38s-.32-.43-.71-.73a12.21,12.21,0,0,1-2.69-2.78.37.37,0,0,0-.14-.31,14.72,14.72,0,0,1-1.69-2.25,15.33,15.33,0,0,1-1.56-3.55,1.19,1.19,0,0,0-.17-.64c-.32-.35-.95-3.06-1.34-5.76a27.23,27.23,0,0,1-.11-5.62c.07-.25.25-.45.39-.45.39,0,1,1,1,1.58a8.28,8.28,0,0,0,.94,2.88,1.62,1.62,0,0,1,.19.84c0,.35.06.67.14.71a6.87,6.87,0,0,1,.78,1.4,12.05,12.05,0,0,0,1,1.73,1.31,1.31,0,0,1,.35.59.29.29,0,0,0,.15.25,13,13,0,0,1,1.06,1.5c.9,1.4,4.86,5.83,5.21,5.83a4.48,4.48,0,0,1,1,.57,6.89,6.89,0,0,0,1.24.72c.54.17,1.75-.46,2.6-1.36s.58-1.17-.43-1.41a1.51,1.51,0,0,1-.72-.32.6.6,0,0,0-.46-.19,1,1,0,0,1-.61-.27,4.77,4.77,0,0,0-.91-.63,22.9,22.9,0,0,1-5.4-5,16.2,16.2,0,0,1-2.52-4.55c0-.16-.06-.32-.14-.35-.32-.15-1.22-3-1.57-5-.2-1.09-.19-1.39,0-1.64a.86.86,0,0,1,1.52.52c0,.2.09.36.19.36s.19.12.19.27a1.21,1.21,0,0,0,.38.63,1.15,1.15,0,0,1,.38.58c0,.69,4.32,5.22,6.08,6.38.17.11.95.67,1.74,1.24a8.31,8.31,0,0,0,1.67,1,1.47,1.47,0,0,1,.63.29,2.65,2.65,0,0,0,.84.38,14.72,14.72,0,0,1,2.56,1c.81.39,1.38.37,1.41-.06.12-1.49-.3-2.34-2.23-4.56a18,18,0,0,0-3.42-2.85,1.44,1.44,0,0,1-.52-.36,21.58,21.58,0,0,0-3.46-2.43c-.11,0-.21-.07-.21-.16s-.46-.45-3.21-2c-2.1-1.16-2.22-1.29-1.72-1.82a.94.94,0,0,1,.82-.32l.9.18c.26.05.81.15,1.23.21a14,14,0,0,1,1.41.3c.37.1,1,.24,1.4.31a7.05,7.05,0,0,1,1.19.3,6.45,6.45,0,0,0,1.06.29,15,15,0,0,1,3.78,1.41,2.47,2.47,0,0,0,.78.28,8.63,8.63,0,0,1,1.58.69,12.85,12.85,0,0,0,1.44.7,4.51,4.51,0,0,1,.85.5c1.24.82,1.75.52.94-.55a2.32,2.32,0,0,1-.37-.66,10.55,10.55,0,0,0-1.78-1.82,7.08,7.08,0,0,0-1.09-.69,5.35,5.35,0,0,1-.91-.56,8.79,8.79,0,0,0-1.6-.58,9.08,9.08,0,0,1-1.69-.64,1.12,1.12,0,0,0-.62-.17,2.43,2.43,0,0,1-1-.29,6.93,6.93,0,0,0-1.92-.41,13.13,13.13,0,0,1-1.49-.19,13.89,13.89,0,0,0-1.61-.2c-1.71-.16-2.17-.35-2.17-.9,0-.78,1.62-1.52,4.84-2.18a20.7,20.7,0,0,1,6-.13l2.26.4a2.69,2.69,0,0,1,.72.22,6.07,6.07,0,0,0,2.56.46c.13-.22-.5-1.09-1-1.33-2.62-1.31-8.62-1.47-12-.31-1.76.59-2.26.52-2-.29a1.85,1.85,0,0,1,.57-.83l1.55-1.19a13.31,13.31,0,0,1,4.74-2.5,33.32,33.32,0,0,1,4.41-.27c1.1,0,1.18,0,1-.34-.63-.8-2.78-1.38-5-1.35-1.89,0-2.36.24-4.24,1.9l-1.32,1.14c-.47.4-.9.78-.95.85a6,6,0,0,1-2.55,1.1c-2.72.22-3.39,0-5-1.5a4.29,4.29,0,0,0-1.09-.82.19.19,0,0,1-.21-.17c0-.24-.87-.58-1.83-.7s-1.86.17-2,.62.23.85.43.53a1.18,1.18,0,0,1,1.29-.47,2.34,2.34,0,0,1,.81.78c.42.61.42.62.06,1.14a4.39,4.39,0,0,1-1.1,1c-.75.44-1.1,1.09-.58,1.09a.44.44,0,0,0,.38-.24c.2-.5,1.21,1,1.34,2a24.32,24.32,0,0,1,.12,5.7c-.46,2.32-.77,4-.85,4.68-.05.38-.14,1.14-.22,1.69a16.16,16.16,0,0,0,1.38,8.46,30.25,30.25,0,0,0,5.16,8.7C444,340.33,444.24,340.43,445.59,340Zm-41.73-17.59a32.44,32.44,0,0,1,1.11-3.19c.29-.65.72-1.7,1-2.33a3.35,3.35,0,0,1,.59-1.15c.09,0,.15-.12.15-.26,0-.58,2.94-3,4.91-4a11.66,11.66,0,0,1,6.63-1.61,13.93,13.93,0,0,1,2.82.25,7.58,7.58,0,0,0,1.49.34,7.53,7.53,0,0,1,1.5.34,24.29,24.29,0,0,0,5.43.08c.07-.07-.43-.13-1.09-.13-1.92,0-3-.15-3.26-.38a.87.87,0,0,0-.53-.21,5.15,5.15,0,0,1-1.14-.27,23.31,23.31,0,0,0-3.48-1,4.59,4.59,0,0,1-1-.29,4.76,4.76,0,0,0-1.28-.27,5.26,5.26,0,0,1-1.16-.22,19.18,19.18,0,0,0-5.3-.08,3.64,3.64,0,0,1-1,.32,4,4,0,0,0-1.25.55c-.37.25-1.11.68-1.63,1a7.39,7.39,0,0,0-1.65,1.25,13.75,13.75,0,0,0-2.37,4.24,6.86,6.86,0,0,1-.52,1.25,5.8,5.8,0,0,0-.5,1.26l-.61,2a12.79,12.79,0,0,0-.41,2,5.75,5.75,0,0,1-.27,1.33,3,3,0,0,0-.16,1,3.94,3.94,0,0,1-.18,1.17,13.81,13.81,0,0,0-.29,2.15c-.14,1.91-.16,1.87,1.79,4l1,1.11.05-4.07C403.27,324.57,403.29,324.36,403.86,322.44Zm-7.77-3.62a5.27,5.27,0,0,1,.18-1.3c.09-.25.32-1,.5-1.65a21.37,21.37,0,0,1,5.38-9.42c2.58-2.77,3.91-3.55,7.35-4.31a9.62,9.62,0,0,1,2.27-.19,10.34,10.34,0,0,1,3.2.49,1.73,1.73,0,0,0,.71.2,21.71,21.71,0,0,1,4,2,12.89,12.89,0,0,0,1.14.9,17.53,17.53,0,0,1,1.6,1.33,2.2,2.2,0,0,0,.79.56.85.85,0,0,1,.48.27c.31.33,1.84,1.18,1.84,1s.24,0,.52.16a10,10,0,0,0,3.58.66c.18-.06.58-.15.88-.21.55-.1.81-.25.67-.39a13.2,13.2,0,0,0-2.82-.43,5.83,5.83,0,0,1-1.73-.41,2.35,2.35,0,0,0-.77-.28,22.59,22.59,0,0,1-3.72-2.18,2,2,0,0,0-.41-.32,23.56,23.56,0,0,1-3.2-2.9,10.14,10.14,0,0,0-2.05-1.68c-.42-.19-.76-.43-.76-.51s-.15-.17-.33-.17a3.28,3.28,0,0,1-1.08-.5,5.73,5.73,0,0,0-2.17-1,11.71,11.71,0,0,0-5.76-.05l-.85.22c-1.6.39-4.26,2.31-6,4.36l-1.06,1.19a13.66,13.66,0,0,0-1.91,2.92l-.64,1.49c-.24.55-.5,1.17-.57,1.39s-.32.81-.54,1.31a5,5,0,0,0-.39,1.33.78.78,0,0,1-.19.55c-.28.18-.22,3.27.09,4.17a11.49,11.49,0,0,0,1.25,2.62c.22.27.26.27.38-.06A4.29,4.29,0,0,0,396.09,318.82ZM430,312.7c.06-.06-.12-.11-.4-.11s-.5.08-.5.19S429.84,312.9,430,312.7Zm1-.64a.37.37,0,0,0-.36,0c-.06.07.05.11.25.11S431.2,312.12,431.05,312.06Zm.72-.58s-.09-.08-.19-.08a.2.2,0,0,0-.19.21c0,.11.09.15.19.08S431.77,311.53,431.77,311.48Zm2.31-3.22c.25-.33.12-.45-.59-.57s-.75.11-.21.62a1.33,1.33,0,0,1,.4.68c0,.21.05.19.11-.08A1.94,1.94,0,0,1,434.08,308.26Zm-2.12-.88c0-.09-.12-.16-.27-.16a18.08,18.08,0,0,1-4.52-2.69c-.12-.12-.54-.47-.94-.79a20.12,20.12,0,0,1-2.22-2.52c-2.29-3-5.92-7.13-6.25-7.13a4.27,4.27,0,0,1-.94-.65,19.89,19.89,0,0,0-7.63-3.25,17.48,17.48,0,0,0-7.89.43,4.79,4.79,0,0,1-1.09.28,9.07,9.07,0,0,0-2.91,1.52,2.4,2.4,0,0,1-.8.47.2.2,0,0,0-.2.19c0,.1-.18.24-.39.32a26.85,26.85,0,0,0-4.14,4.11,2.06,2.06,0,0,1-.54.73c-.73.71-.84,1.42-.68,4.13.12,2.09.16,2.25.44,2a4.76,4.76,0,0,0,.68-1.05,13.64,13.64,0,0,1,.94-1.55,23.54,23.54,0,0,1,3-3.29,4.66,4.66,0,0,0,1-.78,12.29,12.29,0,0,1,3-2,2.92,2.92,0,0,0,.66-.43,2.26,2.26,0,0,1,.66-.35l1.59-.62a9.4,9.4,0,0,1,1.79-.53,4,4,0,0,0,.92-.23,6.77,6.77,0,0,1,2.49-.33,17.27,17.27,0,0,1,5.71,1.45c.18.1.73.39,1.23.63s.89.52.89.61.14.17.3.17a.83.83,0,0,1,.54.26c.14.14.7.65,1.24,1.14a68.93,68.93,0,0,1,5.17,5.41,24.88,24.88,0,0,0,2.09,2.14,2.81,2.81,0,0,1,.72.48,11.9,11.9,0,0,0,2.77,1.46C429.47,307.45,432,307.74,432,307.38Zm.75-2.55v-.61l-.6.33-.6.33.55.26.61.27A2.12,2.12,0,0,0,432.71,304.83Zm-1.51-.48s-.12-.13-.28-.19-.28,0-.28.08.12.19.28.19S431.2,304.4,431.2,304.35Zm-.75-.63a3.84,3.84,0,0,0-.57-1.21,6.69,6.69,0,0,1-.56-1,3.57,3.57,0,0,0-.55-.72,10.13,10.13,0,0,1-1.17-1.93,7.07,7.07,0,0,0-.77-1.38c-.09,0-.15-.22-.15-.41a.91.91,0,0,0-.18-.53,29.26,29.26,0,0,1-1.94-3.67,27.84,27.84,0,0,0-4.06-6.2,19.74,19.74,0,0,0-2.41-2c-.73-.5-1.41-1-1.52-1.08a9.26,9.26,0,0,0-1.78-.93c-.05,0-.35-.11-.66-.23a19.58,19.58,0,0,0-3.12-1c-.36-.07-.94-.2-1.28-.3a31.84,31.84,0,0,0-4.2-.18,31.65,31.65,0,0,1-3.76-.12c-.3-.2-.21-1.16.16-1.63a5.65,5.65,0,0,1,2.84-1.66,2.85,2.85,0,0,0,1.16-.3c.31-.17.56-.27.56-.22a4.91,4.91,0,0,0,1.18-.18,16.11,16.11,0,0,1,4.95,0c.31.07.86.15,1.22.2a10.24,10.24,0,0,1,1.42.29c.64.18,2.33.6,3.77.93a13.16,13.16,0,0,1,4.79,2.47,16.66,16.66,0,0,1,1.07,1.54c.35.56.75,1.14.88,1.29a6.7,6.7,0,0,1,.92,2.16c.13.38.35,1,.48,1.32a16.66,16.66,0,0,1,.56,2.08c.17.81.36,1.61.42,1.77s.26,1.15.45,2.19c.55,3,.56,3,.74,3s.17.12.17.27a8.56,8.56,0,0,0,1,2.48.41.41,0,0,1,.15.34,10.23,10.23,0,0,0,1.6,3.05c.27.29.56.43.74.36.44-.18.36-.71-.14-.95a6.23,6.23,0,0,1-1.82-2.87,6.07,6.07,0,0,0-.38-1,2.69,2.69,0,0,1-.25-.8,42.69,42.69,0,0,0-.88-4.37,4.35,4.35,0,0,1-.19-1.27,2,2,0,0,0-.17-.93,4.29,4.29,0,0,1-.28-1.35,6.36,6.36,0,0,0-.38-1.69c-.14-.3-.34-.76-.45-1a23.44,23.44,0,0,0-1.88-3.82,5.94,5.94,0,0,1-.62-1.1,2.51,2.51,0,0,0-.52-.75c-.29-.33-.86-1-1.27-1.58a19,19,0,0,0-3.22-3.49.33.33,0,0,1-.3-.17A45.08,45.08,0,0,0,416,272a7.93,7.93,0,0,1-1.84-1.44c-.63-.67-.65-1-.06-1.49.77-.64,2.2-.36,4.5.87a4.56,4.56,0,0,0,1.27.57c0-.07.24,0,.52.19a10.24,10.24,0,0,0,1,.5,20.73,20.73,0,0,1,5.67,4.22,14.22,14.22,0,0,1,2.07,3.12.3.3,0,0,0,.14.26,11.4,11.4,0,0,1,1.15,2.36,18.94,18.94,0,0,1,1,3.91,1.45,1.45,0,0,0,.19.78,33.45,33.45,0,0,1,.31,4.86c.06,2.57.14,4.7.17,4.73a16.78,16.78,0,0,0,.6-3.72,6,6,0,0,1,.35-1.91,4.88,4.88,0,0,0,.37-1.61,17.5,17.5,0,0,1,.3-2,6.8,6.8,0,0,0,.1-1.89l-.2-2.36c-.06-.71-.15-1.75-.2-2.3a26,26,0,0,0-1.62-5.54,1,1,0,0,1-.19-.6,3.9,3.9,0,0,0-.46-1.21c-.24-.44-.66-1.25-.94-1.81a8.53,8.53,0,0,0-.83-1.4,9.37,9.37,0,0,1-1.27-2.26,12.39,12.39,0,0,0-.67-1.22,2.14,2.14,0,0,1-.35-.83.41.41,0,0,0-.22-.38c-.38-.14-.22-1.4.23-1.76s.5-.29,1.16-.05a18,18,0,0,1,3.28,1.72c.13.13.51.45.84.72a10.62,10.62,0,0,1,3,3.83c.11.25.27.59.36.76s.43.86.76,1.54l.75,1.59a16.56,16.56,0,0,1,.59,1.9c.36,1.37.4,1.89.32,4.77a24.29,24.29,0,0,1-.49,5c-.23,1-.46,2.06-.52,2.39a8.38,8.38,0,0,1-.46,1.4,4.14,4.14,0,0,0-.36,1.15,1.94,1.94,0,0,1-.17.68,18.58,18.58,0,0,0-1,3.57.77.77,0,0,1-.16.54c-.24.16-.42,1.46-.52,3.84l-.09,2,.53-.25a12,12,0,0,0,2.72-1.94,10.72,10.72,0,0,0,1.86-4.2,8,8,0,0,0-.21-1.56c-.25-1.15-.25-3.77,0-4.05a1,1,0,0,0,.2-.58,5.39,5.39,0,0,1,1-2.1.4.4,0,0,0,.14-.31c0-.57,2.22-3.37,3-3.8a8.43,8.43,0,0,0,2.18-2.21c.31-.43.74-1,1-1.26a16.21,16.21,0,0,0,1.48-4.29,29,29,0,0,0,.22-3.29,13.85,13.85,0,0,0-.5-5.06,25.39,25.39,0,0,1-.58-2.83c0-.26-.07-.46-.16-.46s-.22-.36-.29-.8a7.78,7.78,0,0,0-.38-1.44,14.74,14.74,0,0,1-.5-1.54,25,25,0,0,0-1.14-3.23c-.09-.2-.35-1-.57-1.7-.52-1.79-1.15-3.06-1.6-3.23a4.12,4.12,0,0,0-1.59.14c-.67.15-1.64.32-2.16.38a4.2,4.2,0,0,0-1.13.23c-.22.15-.21.15-1.42.3a6.1,6.1,0,0,0-1.35.32,8.72,8.72,0,0,1-1.32.33,4.35,4.35,0,0,0-1,.23,7.22,7.22,0,0,1-1,.36c-.48.15-1.35.46-1.92.69s-1.2.46-1.41.51a9.39,9.39,0,0,0-2,.86,6,6,0,0,1-1.08.43,15.71,15.71,0,0,0-1.92.88L420.54,257c-.62.29-1.45.7-1.84.91a3.28,3.28,0,0,1-1,.38c-.16,0-.28.08-.28.17s-.23.24-.52.32a1.39,1.39,0,0,0-.61.27,8.2,8.2,0,0,1-1.13.71c-.58.32-1.66,1-2.41,1.54a9.93,9.93,0,0,1-1.55,1,.27.27,0,0,0-.23.17,6.18,6.18,0,0,1-1.13.94,21.93,21.93,0,0,0-1.71,1.38c-.35.32-.92.8-1.26,1.06-1.6,1.2-7.94,7.84-7.94,8.31,0,.15-.09.27-.19.27s-.19.12-.19.26a2.64,2.64,0,0,1-.56.94,2.82,2.82,0,0,0-.56,1,1.61,1.61,0,0,1-.38.67,6,6,0,0,0-.67,1,11.94,11.94,0,0,1-.67,1.21,7.39,7.39,0,0,0-.47.9,10.64,10.64,0,0,1-.61,1.29,23.05,23.05,0,0,0-1.36,3.24,1.78,1.78,0,0,1-.17.6,20.38,20.38,0,0,0-1,3.42,12.52,12.52,0,0,0-.37,3.42,6.28,6.28,0,0,0,1.64-1.34,8.66,8.66,0,0,1,1.74-1.48c.13,0,.24-.07.24-.15,0-.42,5.15-3.21,7.65-4.14,1.29-.48,7.53-.61,8.69-.18a8.84,8.84,0,0,0,1.16.35,1.48,1.48,0,0,1,.65.28c.14.11,1.06.64,2,1.17a15.88,15.88,0,0,1,7.35,7.55l.92,2a29,29,0,0,0,2.65,4.15,1.32,1.32,0,0,1,.4.56,14.1,14.1,0,0,0,3.42,2.94C430.37,304,430.45,303.89,430.45,303.72Zm-37.93,34.52a7.2,7.2,0,0,1-3.44-1.45c-1.75-1.23-3.92-4-3.92-4.91a.67.67,0,0,0-.16-.48,5.81,5.81,0,0,1-.4-1.78,10.87,10.87,0,0,1,3.6-9.77,8.38,8.38,0,0,1,3.17-1.62c.66-.07.7,0,1.13,1,.25.58.53,1.27.63,1.55s.34.83.54,1.23a3.44,3.44,0,0,1,.36,1c0,.17.09.31.19.31a.21.21,0,0,1,.19.21,47.33,47.33,0,0,0,2.36,4.38,24.64,24.64,0,0,0,1.93,2.85,15,15,0,0,1,1.12,1.52,10.54,10.54,0,0,0,1.1,1.39c.89.87.92,1.11.24,1.81a10.76,10.76,0,0,1-3,2.06,3.18,3.18,0,0,0-.66.31C397.05,338.25,393.93,338.49,392.52,338.24Zm-12.12-8.16c-.79-.48-.9-1.15-.9-5.52,0-3.61.06-4.35.39-5.53a14.63,14.63,0,0,1,.56-1.71,1.6,1.6,0,0,0,.19-.56,8.78,8.78,0,0,1,1.78-2.63,2.91,2.91,0,0,1,1.05-.66l1.13-.33a5.69,5.69,0,0,1,.75-.21,5.05,5.05,0,0,0,.66-.18,9,9,0,0,1,2.25-.47,4.79,4.79,0,0,0,1.09-.21c.5-.33,1.29.6,1.29,1.53a1.86,1.86,0,0,0,.17.73,10.19,10.19,0,0,1,.45,1.24c.14.5.32,1,.39,1.2.24.58-.3,1-1.58,1.1a6,6,0,0,0-1.75.42c-.28.15-.51.23-.51.17,0-.24-1.84.89-2.48,1.52a6.49,6.49,0,0,0-1.74,2.84,19.69,19.69,0,0,0-.86,3.9,6.11,6.11,0,0,1-1.19,3.19C381.05,330.34,380.86,330.37,380.4,330.08Zm7-23.57a4.79,4.79,0,0,0-.8-.15c-.42-.06-.93-.15-1.13-.2s-2.06-.38-2.39-.42a.6.6,0,0,1-.27-.16.79.79,0,0,0-.51-.15,3.78,3.78,0,0,1-2.21-1.29.74.74,0,0,1,0-.85c.42-.7,2.72-1.52,5.25-1.86,3.74-.51,3.41-.63,3.52,1.27,0,.68.12,1.79.19,2.48s0,1.25,0,1.26A11.47,11.47,0,0,1,387.38,306.51Zm-.6-8.67a12.17,12.17,0,0,1-2.75-2.66,5.29,5.29,0,0,0-.56-1,3.63,3.63,0,0,1-.57-1.17.54.54,0,0,0-.16-.41,5.77,5.77,0,0,1-.41-1.62,9.72,9.72,0,0,1,2.56-8.35c1.13-1.2,3.18-2.68,3.7-2.68a.78.78,0,0,0,.45-.17,9.09,9.09,0,0,1,3.28-.93c.79.17.84.41.3,1.53-.29.59-.59,1.22-.68,1.41a1.81,1.81,0,0,0-.17.72.91.91,0,0,1-.27.61,2.07,2.07,0,0,0-.39,1,3,3,0,0,1-.29.94,1.84,1.84,0,0,0-.23.7,3,3,0,0,1-.31.95,5.4,5.4,0,0,0-.34,1.4,3.64,3.64,0,0,1-.24,1.12,5.2,5.2,0,0,0-.26,1.4,21.67,21.67,0,0,1-.3,2.18,37.72,37.72,0,0,0-.38,5.23C388.74,298.91,388.21,298.86,386.78,297.84Zm1.5-20.09c-.63-.07-1.39-.18-1.7-.23s-1.08-.17-1.7-.25a6.26,6.26,0,0,1-1.41-.29,3.7,3.7,0,0,0-.86-.26,5.75,5.75,0,0,1-2.47-1.3c-.34-.49.08-1.2,1-1.61a10.29,10.29,0,0,1,2.18-.75c.15,0,.62-.12,1-.17a15.29,15.29,0,0,0,1.6-.3,54.72,54.72,0,0,1,9-.4c2.46,0,2.59.15,1.46,1.51a4.69,4.69,0,0,0-.78,1.24c-.06.24-.17.45-.24.45a2.3,2.3,0,0,0-.58.83c-1,1.77-1,1.78-3.3,1.71C390.35,277.9,388.9,277.82,388.28,277.75Zm3.87-6.78c-.93-.66-.95-1.2-.09-1.82.63-.45.85-.49,2.52-.46s1.91.1,2.44.5c.74.56.74,1.1,0,1.69-.43.34-.87.43-2.36.49C393,271.44,392.75,271.4,392.15,271Zm-.57-3.18a15.31,15.31,0,0,1-1.6-.25l-1.28-.34c-.49-.13-.89-.3-.89-.38s-.23-.2-.5-.27a7.48,7.48,0,0,1-4-4.09,8.42,8.42,0,0,1-.86-2.49c0-.33-.23-1.32-.4-2.19a37.23,37.23,0,0,1,.21-10c.33-1.2,1.18-2.28,1.65-2.09s.45.74.47,3.52a21,21,0,0,0,.22,3.18,15.34,15.34,0,0,1,.3,1.54,11.72,11.72,0,0,0,2.33,4.6l.75,1a8.4,8.4,0,0,0,2.08,1.5,2.26,2.26,0,0,1,.68.33c.68.56,6.55.57,7.56,0a8.48,8.48,0,0,1,1-.43c.34-.14.61-.32.61-.42s.12-.17.25-.17a7.28,7.28,0,0,0,2-2.15.77.77,0,0,1,.28-.44,12.06,12.06,0,0,0,1.6-3.5,1,1,0,0,1,.2-.6,19.54,19.54,0,0,0,.29-3.48c.12-3.88.15-4.09.66-4.26s1.31.56,1.31,1.09a.93.93,0,0,0,.23.57c.18.19.24,1.65.24,5.9s-.06,5.71-.24,5.9a1.5,1.5,0,0,0-.23.86,3.65,3.65,0,0,1-.38,1.35,3.78,3.78,0,0,0-.38,1,9.2,9.2,0,0,1-1.84,2.71,12,12,0,0,1-6,2.58A43.19,43.19,0,0,1,391.58,267.79Zm1.69-7.52a3.07,3.07,0,0,0-.85-.26,9,9,0,0,1-3.75-2.27,10.21,10.21,0,0,1-2.44-4c-.34-1.13-.43-3.94-.12-4.14a.68.68,0,0,0,.19-.5,4,4,0,0,1,.43-1.23,27.75,27.75,0,0,1,1.65-2.94c.06-.06.57-.73,1.13-1.5s1.25-1.66,1.54-2a2.2,2.2,0,0,0,.53-.85c0-.14.06-.25.14-.25s.34-.31.78-1.31c.14-.32.33-.73.42-.92a3.42,3.42,0,0,0,.17-1.12c0-.75,0-.79-.84-1.07s-.86-.27-1.27.13c-1.87,1.78-2.66,2-2.92,1-.1-.42,0-.65.75-1.37s.87-.87.86-2.18a2.67,2.67,0,0,1,.29-1.66,1.34,1.34,0,0,0,.3-.56c0-.42,1.5-1.72,2.48-2.16l1-.45,0-3.58c0-2,.07-3.72.13-3.88a1.23,1.23,0,0,1,.49-.53c.33-.18.44-.13.72.33s.35,1.13.43,3.87a16.64,16.64,0,0,0,.3,3.55c.31.33,2.07-.23,3.87-1.21,1.18-.65,1.61-.8,1.84-.64.63.42.47.9-.66,2-.61.62-1.58,1.7-2.14,2.41s-1.08,1.34-1.13,1.39a10.18,10.18,0,0,0-.94,1.68,3.92,3.92,0,0,0-.21,2.79c1.24,4.47,1.69,5.54,3.23,7.67a10.36,10.36,0,0,1,1.13,1.78c0,.11.06.21.14.21a7.66,7.66,0,0,1,1,2.68,8.22,8.22,0,0,1,.16,3.67,9.81,9.81,0,0,1-1.18,3.16.32.32,0,0,0-.14.27,6.91,6.91,0,0,1-1.08,1.38,8,8,0,0,1-3.42,2.39A6.65,6.65,0,0,1,393.27,260.27Zm20.43-3.66c-.71-1-.79-1.81-.2-2.34s.5-.43,1.87-.18c.56.1,1.48.23,2,.3,1.25.14,1.39.23,1.15.7a19.14,19.14,0,0,1-4.11,2.38A3.64,3.64,0,0,1,413.7,256.61Zm9.14-4.43s-1-.08-2.11-.14a16.83,16.83,0,0,1-2.69-.3c-.33-.11-.61-.16-.61-.1,0,.23-1.28-.69-2-1.47a2.63,2.63,0,0,1-.92-1.6c-.16-1.21.19-1.43,2-1.32a8.81,8.81,0,0,1,1.69.2,2.61,2.61,0,0,0,.58.19,6.93,6.93,0,0,1,2.16,1.44,5.25,5.25,0,0,0,2,1.12,4.53,4.53,0,0,0,2.47.12,4.64,4.64,0,0,0,.27-2.11c0-1.05,0-2,.06-2a2.14,2.14,0,0,0-.12-.58c-.13-.42-.24-.44-2.06-.46-4.37,0-5.54-.33-6.93-1.82-1-1.05-1.17-1.71-.74-2.57.19-.36.33-.38,1.37-.26l1.87.18a2.4,2.4,0,0,1,1.66.91c1.15,1.28,3.69,2.35,4.67,2,.4-.17.42-.27.42-2.55a11.55,11.55,0,0,0-.15-2.49,24.3,24.3,0,0,0-4-.44c-2.63-.18-3.9-1-4.64-2.84-.24-.6-.24-.74,0-1.15s.49-.52,1.13-.51c.1,0,.71.12,1.36.25a2.86,2.86,0,0,1,1.7.82,5.53,5.53,0,0,0,3.45,1.91l1.13.11V234a12.43,12.43,0,0,0-.14-2.63l-1.75-.09c-2.38-.11-3.72-.45-4.47-1.15a3.2,3.2,0,0,1-1.19-2.29c0-.85.39-1.09,1.56-1,.54.07,1.09.12,1.21.13a4.66,4.66,0,0,1,1.14,1,5.05,5.05,0,0,0,3.07,1.82h.57v-5.57l-1.46,0c-.81,0-1.68,0-1.94-.07a4.73,4.73,0,0,1-2-1,4.86,4.86,0,0,1-.85-2.27c0-.93.37-1.12,1.5-.77.53.17,1,.24,1,.17a5.63,5.63,0,0,1,1.11,1.12c.93,1.05,1.23,1.27,1.88,1.37s.78.09.8-.47c0-.31,0-1.49.07-2.61a9.16,9.16,0,0,0-.06-2.12,7.34,7.34,0,0,0-1.26-.2c-2.11-.21-2.58-.46-3.29-1.79-.42-.8-.52-2.23-.15-2.35a2.69,2.69,0,0,1,1,.06c.72.14,1.14.51,2.09,1.84a2.76,2.76,0,0,0,.91.76c.76.33.88,0,.9-2.12,0-1,.05-2,.1-2.29.12-.78-.16-1-1.35-1.12-1.39-.13-2-.68-2.46-2.18-.25-.87-.27-1.13-.08-1.37.56-.71,1.81-.07,2.39,1.22.32.7.89,1.1,1.34.92.17-.07.24-.69.24-2.13,0-2-.22-3.15-.7-3.66-.63-.67,0-1.93,1-2.14a1.68,1.68,0,0,1,1.86.77,1,1,0,0,1,.06,1.1c-.13.35-.29.64-.37.64s-.32,1-.41,3.32.1,2.65,1,1.5a3.44,3.44,0,0,0,.58-.91c0-.56,1.36-1.1,1.81-.72s.32,1.26-.16,2.26a2.2,2.2,0,0,1-2.19,1.43,2.5,2.5,0,0,0-.95.19A23,23,0,0,0,428,216c.34.35,1.33-.23,1.92-1.15.74-1.12,1.89-1.7,2.72-1.37.34.14.43,1.57.11,1.77a.55.55,0,0,0-.19.41c0,.4-.56,1.06-1.2,1.42a6.3,6.3,0,0,1-1.88.4,4.84,4.84,0,0,0-1.54.29,15.48,15.48,0,0,0,0,5,2.13,2.13,0,0,0,1.79-.13,6.7,6.7,0,0,0,1.33-1.24c.58-.68,1-1,1.36-1a8.39,8.39,0,0,0,1-.16.71.71,0,0,1,.77.27c.3.35.31.49.09,1.29a3.69,3.69,0,0,1-1.78,2.29,11.08,11.08,0,0,1-2.27.23c-2.44.07-2.45.08-2.5,2.85a7.28,7.28,0,0,0,.16,2.43c.31.39,1.59.32,2.43-.13a8.22,8.22,0,0,0,1.55-1.21c1-1.05,1.2-1.13,2.32-1.2,1.81-.11,2.2.42,1.42,2a3.14,3.14,0,0,1-1.65,1.8c-.66.36-1.19.44-3.32.5a17.69,17.69,0,0,0-2.75.21c-.15.1-.21.91-.2,2.51,0,2.61,0,2.57,1.33,2.61a5,5,0,0,0,3.75-1.62,3.1,3.1,0,0,1,2.08-1.06c.47-.06,1.07-.16,1.35-.23a.79.79,0,0,1,.9.28c.64.67.48,1.43-.55,2.67s-2,1.42-6.23,1.64c-2.88.14-2.64-.1-2.64,2.66,0,1.63.07,2.42.22,2.52a9.53,9.53,0,0,0,3.24-.07,1.35,1.35,0,0,1,.47-.18,8.63,8.63,0,0,0,2-1.42c.89-.86,1.39-1,3.16-1.16l1.77-.12.19.56c.37,1.15-.48,2.52-2.12,3.42-.9.5-1.09.52-4.7.6-2.79.06-3.83.14-4,.34s-.25.9-.25,2.43c0,2.06,0,2.19.42,2.38a1.6,1.6,0,0,0,.76.15c.45-.08.42.25-.05.41-.21.07-.38.2-.38.29s-.51.42-.75.38a9.17,9.17,0,0,0-1.06.39,5.27,5.27,0,0,1-2.32.36C423.49,252.22,422.86,252.2,422.84,252.18Zm11.64-3.09c-.06-.12.13-.46.44-.76a2.45,2.45,0,0,1,1.68-.69c.61-.08,1.45-.2,1.87-.28a4.62,4.62,0,0,1,1-.11l.42.06c.11,0,.19.15.19.3,0,.31-1.48.88-2.7,1a6.44,6.44,0,0,0-1.26.28C435.31,249.24,434.61,249.31,434.48,249.09Z"/><text class="cls-2" transform="translate(334.32 318.4)"><tspan class="cls-3">L</tspan><tspan class="cls-1" x="106.32" y="0">MD</tspan></text><polygon class="cls-4" points="348.83 330.94 363.3 402.1 597.47 286.12 684.84 350.39 663.56 398.24 348.83 330.94"/></svg>